<svg width="156" height="20" viewBox="0 0 156 20" fill="none" xmlns="http://www.w3.org/2000/svg">
<path d="M0.8125 10.875V7.125L12.4375 2.46875V6.40625L5.03125 8.96875L5.15625 8.78125V9.21875L5.03125 9.03125L12.4375 11.5937V15.5312L0.8125 10.875ZM21.4414 17H15.2852V1H21.3789C23.0247 1 24.4466 1.32031 25.6445 1.96094C26.8477 2.59635 27.7747 3.51302 28.4258 4.71094C29.082 5.90365 29.4102 7.33333 29.4102 9C29.4102 10.6667 29.0846 12.099 28.4336 13.2969C27.7826 14.4896 26.8607 15.4062 25.668 16.0469C24.4753 16.6823 23.0664 17 21.4414 17ZM19.6289 13.3125H21.2852C22.0768 13.3125 22.7513 13.1849 23.3086 12.9297C23.8711 12.6745 24.2982 12.2344 24.5898 11.6094C24.8867 10.9844 25.0352 10.1146 25.0352 9C25.0352 7.88542 24.8841 7.01562 24.582 6.39062C24.2852 5.76562 23.8477 5.32552 23.2695 5.07031C22.6966 4.8151 21.9935 4.6875 21.1602 4.6875H19.6289V13.3125ZM31.4199 17V1H42.9512V4.5H35.7637V7.25H42.3574V10.75H35.7637V13.5H42.9199V17H31.4199ZM49.4805 1L52.7617 12.2812H52.8867L56.168 1H61.0742L55.793 17H49.8555L44.5742 1H49.4805Z" fill="#45485F"/>
<path d="M62.6152 17V1H74.1465V4.5H66.959V7.25H73.5527V10.75H66.959V13.5H74.1152V17H62.6152ZM76.3008 1H81.707L85.4258 10.0625H85.6133L89.332 1H94.7383V17H90.4883V7.75H90.3633L86.8008 16.875H84.2383L80.6758 7.6875H80.5508V17H76.3008V1ZM96.7969 1H102.203L105.922 10.0625H106.109L109.828 1H115.234V17H110.984V7.75H110.859L107.297 16.875H104.734L101.172 7.6875H101.047V17H96.7969V1ZM116.637 1H121.48L124.605 7.5H124.73L127.855 1H132.699L126.824 11.9687V17H122.512V11.9687L116.637 1ZM142.021 0.249999L136.865 19.4062H133.209L138.365 0.249999H142.021ZM155.588 12.375L143.963 17.0313V13.0937L151.369 10.5312L151.244 10.7187V10.2812L151.369 10.4688L143.963 7.90625V3.96875L155.588 8.625V12.375Z" fill="white"/>
</svg>
